<?xml version="1.0" encoding="UTF-8" standalone="no"?>
<!-- Created with Inkscape (http://www.inkscape.org/) -->

<svg
   version="1.1"
   id="svg2"
   xml:space="preserve"
   width="330.66666"
   height="242.66667"
   viewBox="0 0 330.66666 242.66667"
   sodipodi:docname="m141gr00.eps"
   xmlns:inkscape="http://www.inkscape.org/namespaces/inkscape"
   xmlns:sodipodi="http://sodipodi.sourceforge.net/DTD/sodipodi-0.dtd"
   xmlns="http://www.w3.org/2000/svg"
   xmlns:svg="http://www.w3.org/2000/svg"><defs
     id="defs6" /><sodipodi:namedview
     id="namedview4"
     pagecolor="#ffffff"
     bordercolor="#666666"
     borderopacity="1.0"
     inkscape:pageshadow="2"
     inkscape:pageopacity="0.0"
     inkscape:pagecheckerboard="0" /><g
     id="g8"
     inkscape:groupmode="layer"
     inkscape:label="ink_ext_XXXXXX"
     transform="matrix(1.3333333,0,0,-1.3333333,0,242.66667)"><g
       id="g10"
       transform="scale(0.1)"><path
         d="M 5.35938,910 H 2480 m -1260,180 c 148.32,0 450,-30.96 450,-180 0,-149.039 -301.68,-180 -450,-180 -148.32,0 -450,30.961 -450,180 0,149.04 301.68,180 450,180 z m 0,135.36 c 198,0 450,-116.64 450,-315.36 0,-198.719 -252,-314.641 -450,-314.641 -198,0 -450,115.922 -450,314.641 0,198.72 252,315.36 450,315.36 z m 0,134.64 c 315.36,0 540,-270 450,-450 90,-180 -134.64,-450 -450,-450 -315.359,0 -540,270 -450,450 -90,180 134.641,450 450,450 z m 0,135.36 c 450,0 630,-450 450,-585.36 180,-134.641 0,-584.641 -450,-584.641 -450,0 -630,450 -450,584.641 -180,135.36 0,585.36 450,585.36 z m 0,134.64 c 675.36,0.72 675.36,-720 449.28,-720 C 1895.36,910 1895.36,190.719 1220,190 544.641,189.281 545.359,910 769.281,910 545.359,910 544.641,1629.28 1220,1630 Z m 0,180 c 900,0 900,-900 449.28,-900 C 2120,910 2120,10 1220,10 320,10 320,910 769.281,910 320,910 320,1810 1220,1810 Z m 897.12,-342.72 C 2210,1180 2035.04,910 1669.28,910 2073.2,910 2210,550 2066,275.68 M 343.762,315.281 C 230,595.359 386.238,910 769.281,910 405.68,910 230,1225.36 320,1464.4 M 2409.44,1159.84 C 2287.04,1015.12 2035.04,910 1669.28,910 c 365.76,0 617.76,-105.121 740.16,-249.84 M 70.8789,701.922 C 204.078,824.32 440.961,910 769.281,910 440.961,910 204.078,995.68 70.8789,1118.08"
         style="fill:none;stroke:#231f20;stroke-width:2.16;stroke-linecap:butt;stroke-linejoin:miter;stroke-miterlimit:2.6131;stroke-dasharray:none;stroke-opacity:1"
         id="path12" /><path
         d="M 680,1000.71 H 1760 V 820.965 H 680 v 179.745"
         style="fill:#e9e9e9;fill-opacity:1;fill-rule:evenodd;stroke:none"
         id="path14" /><path
         d="M 680,1000.71 H 1760 V 820.965 H 680 Z"
         style="fill:none;stroke:#231f20;stroke-width:10.08;stroke-linecap:butt;stroke-linejoin:miter;stroke-miterlimit:2.6131;stroke-dasharray:none;stroke-opacity:1"
         id="path16" /><g
         id="g18"
         transform="scale(10)"><text
           transform="matrix(1,0,0,-1,104,86.5359)"
           style="font-variant:normal;font-weight:normal;font-size:11.9997px;font-family:Swis721LtCnBT;-inkscape-font-specification:Swis721LtCnBT;writing-mode:lr-tb;fill:#231f20;fill-opacity:1;fill-rule:nonzero;stroke:none"
           id="text30"><tspan
             x="0"
             y="0"
             id="tspan20">M</tspan><tspan
             x="0.34687501"
             y="-9.8398399"
             id="tspan22">`</tspan><tspan
             x="14.197675"
             y="0"
             id="tspan24">=</tspan><tspan
             x="15.274625"
             y="0.47968799"
             id="tspan26">/</tspan><tspan
             x="26.077326"
             y="0"
             id="tspan28">0</tspan></text></g><path
         d="m 1546.88,1402.48 266.14,-45.49 -20.27,-118.58 -266.14,45.49 20.27,118.58"
         style="fill:#ffffff;fill-opacity:1;fill-rule:evenodd;stroke:none"
         id="path32" /><g
         id="g34"
         transform="scale(10)"><text
           transform="matrix(1,0,0,-1,153.536,127)"
           style="font-variant:normal;font-weight:normal;font-size:11.9997px;font-family:Swis721LtCnBT;-inkscape-font-specification:Swis721LtCnBT;writing-mode:lr-tb;fill:#231f20;fill-opacity:1;fill-rule:nonzero;stroke:none"
           id="text42"><tspan
             x="0"
             y="0"
             id="tspan36">M</tspan><tspan
             x="0.467188"
             y="-9.8398399"
             id="tspan38">`</tspan><tspan
             x="12.637888 21.849602"
             y="0"
             sodipodi:role="line"
             id="tspan40">=0</tspan></text></g></g></g></svg>
