<?xml version="1.0" encoding="UTF-8" standalone="no"?>
<!-- Created with Inkscape (http://www.inkscape.org/) -->

<svg
   version="1.1"
   id="svg2"
   xml:space="preserve"
   width="194.66667"
   height="134.66667"
   viewBox="0 0 194.66667 134.66667"
   sodipodi:docname="m114gr03.eps"
   xmlns:inkscape="http://www.inkscape.org/namespaces/inkscape"
   xmlns:sodipodi="http://sodipodi.sourceforge.net/DTD/sodipodi-0.dtd"
   xmlns="http://www.w3.org/2000/svg"
   xmlns:svg="http://www.w3.org/2000/svg"><defs
     id="defs6" /><sodipodi:namedview
     id="namedview4"
     pagecolor="#ffffff"
     bordercolor="#666666"
     borderopacity="1.0"
     inkscape:pageshadow="2"
     inkscape:pageopacity="0.0"
     inkscape:pagecheckerboard="0" /><g
     id="g8"
     inkscape:groupmode="layer"
     inkscape:label="ink_ext_XXXXXX"
     transform="matrix(1.3333333,0,0,-1.3333333,0,134.66667)"><g
       id="g10"
       transform="scale(0.1)"><path
         d="m 370,572.301 c 12.199,0 22.301,-10.102 22.301,-22.301 0,-13 -10.102,-22.301 -22.301,-22.301 -12.199,0 -22.301,9.301 -22.301,22.301 0,12.199 10.102,22.301 22.301,22.301 z M 347.699,550 H 370"
         style="fill:#231f20;fill-opacity:1;fill-rule:evenodd;stroke:none"
         id="path12" /><path
         d="M 370,1000 V 10 M 10,190 h 1440"
         style="fill:none;stroke:#231f20;stroke-width:5;stroke-linecap:butt;stroke-linejoin:miter;stroke-miterlimit:11.4737;stroke-dasharray:none;stroke-opacity:1"
         id="path14" /><path
         d="M 370,550 H 910.699"
         style="fill:none;stroke:#231f20;stroke-width:2.2;stroke-linecap:butt;stroke-linejoin:miter;stroke-miterlimit:11.4737;stroke-dasharray:26.4, 17.6;stroke-dashoffset:0;stroke-opacity:1"
         id="path16" /><path
         d="M 717,983.398 370,550"
         style="fill:none;stroke:#231f20;stroke-width:10.1;stroke-linecap:butt;stroke-linejoin:miter;stroke-miterlimit:11.4737;stroke-dasharray:none;stroke-opacity:1"
         id="path18" /><path
         d="m 730,1000 -65.5,-49.699 30.199,-25.903 z"
         style="fill:#231f20;fill-opacity:1;fill-rule:evenodd;stroke:none"
         id="path20" /><g
         id="g22"
         transform="scale(10)"><text
           transform="matrix(1,0,0,-1,54.9324,63.9785)"
           style="font-variant:normal;font-weight:normal;font-size:10.0066px;font-family:Symbol;-inkscape-font-specification:Symbol;writing-mode:lr-tb;fill:#231f20;fill-opacity:1;fill-rule:nonzero;stroke:none"
           id="text26"><tspan
             x="0"
             y="0"
             id="tspan24">φ</tspan></text></g><path
         d="m 266.398,477.086 7.2,-7.199 c 5.039,5.758 4.316,16.558 4.316,28.074 -0.719,25.199 -7.195,30.957 -15.117,30.957 -7.918,0 -14.399,-7.199 -15.117,-17.277 -2.879,-45.352 8.64,-52.551 22.316,-46.075 l -7.199,6.481 z m 16.559,-21.598 -7.922,5.758 c -10.797,-7.195 -33.836,-5.758 -34.555,29.52 -0.718,25.195 0.719,43.191 22.317,45.351 23.039,-0.719 22.316,-30.957 22.316,-38.156 0,-5.758 0,-25.195 -5.758,-32.395 l 7.918,-5.757 -4.316,-4.321"
         style="fill:#231f20;fill-opacity:1;fill-rule:evenodd;stroke:none"
         id="path28" /><path
         d="m 314.633,495.082 h 4.316 v -59.75 h -5.758 v 44.633 h -10.078 -2.16 v 3.601 c 14.399,-0.722 13.68,7.918 13.68,11.516"
         style="fill:#231f20;fill-opacity:1;fill-rule:evenodd;stroke:none"
         id="path30" /><path
         d="m 550,550 c 0,55.398 -25.898,105.102 -66.199,138.199"
         style="fill:none;stroke:#231f20;stroke-width:2.2;stroke-linecap:butt;stroke-linejoin:miter;stroke-miterlimit:11.4737;stroke-dasharray:none;stroke-opacity:1"
         id="path32" /><path
         d="m 779.691,909.75 v 74.152 h 35.278 v -5.761 h -27.356 v -25.914 h 25.196 v -6.481 H 787.613 V 909.75 h -7.922"
         style="fill:#231f20;fill-opacity:1;fill-rule:evenodd;stroke:none"
         id="path34" /></g></g></svg>
