<?xml version="1.0" encoding="UTF-8" standalone="no"?>
<!-- Created with Inkscape (http://www.inkscape.org/) -->

<svg
   version="1.1"
   id="svg2"
   xml:space="preserve"
   width="352"
   height="258.66666"
   viewBox="0 0 352 258.66666"
   sodipodi:docname="m7gr10.eps"
   xmlns:inkscape="http://www.inkscape.org/namespaces/inkscape"
   xmlns:sodipodi="http://sodipodi.sourceforge.net/DTD/sodipodi-0.dtd"
   xmlns="http://www.w3.org/2000/svg"
   xmlns:svg="http://www.w3.org/2000/svg"><defs
     id="defs6" /><sodipodi:namedview
     id="namedview4"
     pagecolor="#ffffff"
     bordercolor="#666666"
     borderopacity="1.0"
     inkscape:pageshadow="2"
     inkscape:pageopacity="0.0"
     inkscape:pagecheckerboard="0" /><g
     id="g8"
     inkscape:groupmode="layer"
     inkscape:label="ink_ext_XXXXXX"
     transform="matrix(1.3333333,0,0,-1.3333333,0,258.66667)"><g
       id="g10"
       transform="scale(0.1)"><path
         d="M 110,1913.93 V 1349.58"
         style="fill:none;stroke:#231f20;stroke-width:5.04;stroke-linecap:butt;stroke-linejoin:miter;stroke-miterlimit:2.6131;stroke-dasharray:none;stroke-opacity:1"
         id="path12" /><path
         d="M 110,1935.27 89.8398,1854.63 H 130.16 Z"
         style="fill:#231f20;fill-opacity:1;fill-rule:evenodd;stroke:none"
         id="path14" /><path
         d="M 110,1239.1 V 676.297"
         style="fill:none;stroke:#231f20;stroke-width:5.04;stroke-linecap:butt;stroke-linejoin:miter;stroke-miterlimit:2.6131;stroke-dasharray:none;stroke-opacity:1"
         id="path16" /><path
         d="M 110,1260.45 89.8398,1179.81 H 130.16 Z"
         style="fill:#231f20;fill-opacity:1;fill-rule:evenodd;stroke:none"
         id="path18" /><path
         d="M 110,564.793 V 0.9375"
         style="fill:none;stroke:#231f20;stroke-width:5.04;stroke-linecap:butt;stroke-linejoin:miter;stroke-miterlimit:2.6131;stroke-dasharray:none;stroke-opacity:1"
         id="path20" /><path
         d="M 110,586.141 89.8398,505.504 H 130.16 Z"
         style="fill:#231f20;fill-opacity:1;fill-rule:evenodd;stroke:none"
         id="path22" /><path
         d="M 2612.05,1620 H 109.793"
         style="fill:none;stroke:#231f20;stroke-width:5.04;stroke-linecap:butt;stroke-linejoin:miter;stroke-miterlimit:2.6131;stroke-dasharray:none;stroke-opacity:1"
         id="path24" /><path
         d="m 2633.39,1620 -80.63,20.16 v -40.32 z"
         style="fill:#231f20;fill-opacity:1;fill-rule:evenodd;stroke:none"
         id="path26" /><path
         d="M 2612.05,945.359 H 109.793"
         style="fill:none;stroke:#231f20;stroke-width:5.04;stroke-linecap:butt;stroke-linejoin:miter;stroke-miterlimit:2.6131;stroke-dasharray:none;stroke-opacity:1"
         id="path28" /><path
         d="m 2633.39,945.359 -80.63,20.161 v -40.321 z"
         style="fill:#231f20;fill-opacity:1;fill-rule:evenodd;stroke:none"
         id="path30" /><path
         d="M 2612.05,270 H 109.793"
         style="fill:none;stroke:#231f20;stroke-width:5.04;stroke-linecap:butt;stroke-linejoin:miter;stroke-miterlimit:2.6131;stroke-dasharray:none;stroke-opacity:1"
         id="path32" /><path
         d="m 2633.39,270 -80.63,20.16 v -40.32 z"
         style="fill:#231f20;fill-opacity:1;fill-rule:evenodd;stroke:none"
         id="path34" /><g
         id="g36"
         transform="scale(10)"><text
           transform="matrix(1,0,0,-1,0.219922,175.536)"
           style="font-variant:normal;font-weight:normal;font-size:9.9999px;font-family:Swis721LtCnBT;-inkscape-font-specification:Swis721LtCnBT;writing-mode:lr-tb;fill:#231f20;fill-opacity:1;fill-rule:nonzero;stroke:none"
           id="text50"><tspan
             x="0"
             y="0"
             id="tspan38">x</tspan><tspan
             x="-0.119141"
             y="67.535896"
             id="tspan40">v</tspan><tspan
             x="-0.20000041"
             y="130.5359"
             id="tspan42">a</tspan><tspan
             x="249.31599"
             y="26.999901"
             id="tspan44">t</tspan><tspan
             x="249.31599"
             y="94.535797"
             id="tspan46">t</tspan><tspan
             x="249.31599"
             y="161.99989"
             id="tspan48">t</tspan></text></g><path
         d="m 2228.96,1236.96 c -38.88,-36.72 -85.68,-66.24 -138.24,-66.24 -52.56,0 -99.36,29.52 -138.24,66.24 -94.32,89.28 -159.84,253.44 -223.2,381.6 -41.76,84.24 -115.2,179.28 -199.44,233.28 -54.72,36 -108.72,50.4 -160.56,38.16 -298.08,-72.72 -537.12,-166.32 -537.12,-268.56"
         style="fill:none;stroke:#231f20;stroke-width:10.08;stroke-linecap:butt;stroke-linejoin:miter;stroke-miterlimit:2.6131;stroke-dasharray:none;stroke-opacity:1"
         id="path52" /><path
         d="m 110,1620 180,225.36 180,-1.44 360,-222.48"
         style="fill:none;stroke:#231f20;stroke-width:10.08;stroke-linecap:butt;stroke-linejoin:miter;stroke-miterlimit:2.6131;stroke-dasharray:none;stroke-opacity:1"
         id="path54" /><path
         d="m 290,1643.04 v -45 m 180,45 v -45 m 180,45 v -45 m 180,45 v -45 m 180,45 v -45 m 180,45 v -45 m 180,45 v -45 m 180,45 v -45 m 180,45 v -45 m 180,45 v -45 m 180,45 v -45 m 180,45 v -45"
         style="fill:none;stroke:#231f20;stroke-width:2.16;stroke-linecap:butt;stroke-linejoin:miter;stroke-miterlimit:2.6131;stroke-dasharray:none;stroke-opacity:1"
         id="path56" /><path
         d="m 290,967.68 v -45 m 180,45 v -45 m 180,45 v -45 m 180,45 v -45 m 180,45 v -45 m 180,45 v -45 m 180,45 v -45 m 180,45 v -45 m 180,45 v -45 m 180,45 v -45 m 180,45 v -45 m 180,45 v -45"
         style="fill:none;stroke:#231f20;stroke-width:2.16;stroke-linecap:butt;stroke-linejoin:miter;stroke-miterlimit:2.6131;stroke-dasharray:none;stroke-opacity:1"
         id="path58" /><path
         d="m 290,293.039 v -45 m 180,45 v -45 m 180,45 v -45 m 180,45 v -45 m 180,45 v -45 m 180,45 v -45 m 180,45 v -45 m 180,45 v -45 m 180,45 v -45 m 180,45 v -45 m 180,45 v -45 m 180,45 v -45"
         style="fill:none;stroke:#231f20;stroke-width:2.16;stroke-linecap:butt;stroke-linejoin:miter;stroke-miterlimit:2.6131;stroke-dasharray:none;stroke-opacity:1"
         id="path60" /><path
         d="m 110,1125.36 h 180 m 0,-180.001 h 180 m 0,-90 h 360 m 0,270.001 540,-180.001 m 0,0 360,-270 m 0,0 360,270"
         style="fill:none;stroke:#231f20;stroke-width:10.08;stroke-linecap:butt;stroke-linejoin:miter;stroke-miterlimit:2.6131;stroke-dasharray:none;stroke-opacity:1"
         id="path62" /><path
         d="m 110,270 h 720 m 0,-90 h 540 m 0,-90 h 360 m 0,360 h 360"
         style="fill:none;stroke:#231f20;stroke-width:10.08;stroke-linecap:butt;stroke-linejoin:miter;stroke-miterlimit:2.6131;stroke-dasharray:none;stroke-opacity:1"
         id="path64" /><path
         d="M 290,1125.36 V 945.359 m 180,0 v -90 M 830,1125.36 V 855.359"
         style="fill:none;stroke:#231f20;stroke-width:2.16;stroke-linecap:butt;stroke-linejoin:miter;stroke-miterlimit:2.6131;stroke-dasharray:2.16, 10.8;stroke-dashoffset:0;stroke-opacity:1"
         id="path66" /><path
         d="m 830,270 v -90 m 540,90 V 90 m 360,360 V 90"
         style="fill:none;stroke:#231f20;stroke-width:2.16;stroke-linecap:butt;stroke-linejoin:miter;stroke-miterlimit:2.6131;stroke-dasharray:2.16, 10.8;stroke-dashoffset:0;stroke-opacity:1"
         id="path68" /></g></g></svg>
