<?xml version="1.0" encoding="UTF-8" standalone="no"?>
<!-- Created with Inkscape (http://www.inkscape.org/) -->

<svg
   version="1.1"
   id="svg2"
   xml:space="preserve"
   width="198.66667"
   height="197.33333"
   viewBox="0 0 198.66667 197.33333"
   sodipodi:docname="m204gr04.eps"
   xmlns:inkscape="http://www.inkscape.org/namespaces/inkscape"
   xmlns:sodipodi="http://sodipodi.sourceforge.net/DTD/sodipodi-0.dtd"
   xmlns="http://www.w3.org/2000/svg"
   xmlns:svg="http://www.w3.org/2000/svg"><defs
     id="defs6" /><sodipodi:namedview
     id="namedview4"
     pagecolor="#ffffff"
     bordercolor="#666666"
     borderopacity="1.0"
     inkscape:pageshadow="2"
     inkscape:pageopacity="0.0"
     inkscape:pagecheckerboard="0" /><g
     id="g8"
     inkscape:groupmode="layer"
     inkscape:label="ink_ext_XXXXXX"
     transform="matrix(1.3333333,0,0,-1.3333333,0,197.33333)"><g
       id="g10"
       transform="scale(0.1)"><path
         d="M 145.359,1358.05 V 140.836"
         style="fill:none;stroke:#231f20;stroke-width:5.04;stroke-linecap:butt;stroke-linejoin:miter;stroke-miterlimit:2.6131;stroke-dasharray:none;stroke-opacity:1"
         id="path12" /><path
         d="m 145.965,1400 c -2.52,-25.77 -5.02,-52.78 -16.348,-72.13 12.598,5.16 20.137,5.16 31.469,0 -10.082,19.33 -12.602,46.36 -15.121,72.13"
         style="fill:#231f20;fill-opacity:1;fill-rule:evenodd;stroke:none"
         id="path14" /><path
         d="M 1408.05,140.719 H 145.359"
         style="fill:none;stroke:#231f20;stroke-width:5.04;stroke-linecap:butt;stroke-linejoin:miter;stroke-miterlimit:2.6131;stroke-dasharray:none;stroke-opacity:1"
         id="path16" /><path
         d="m 1450,140.117 c -25.77,2.52 -52.78,5.02 -72.13,16.348 5.16,-12.602 5.16,-20.137 0,-31.469 19.33,10.082 46.36,12.602 72.13,15.121"
         style="fill:#231f20;fill-opacity:1;fill-rule:evenodd;stroke:none"
         id="path18" /><path
         d="M 326.078,183.922 C 675.281,368.961 594.641,1085.36 730,1085.36 c 135.359,0 54.719,-717.122 404.64,-901.438"
         style="fill:none;stroke:#231f20;stroke-width:10.08;stroke-linecap:butt;stroke-linejoin:miter;stroke-miterlimit:2.6131;stroke-dasharray:none;stroke-opacity:1"
         id="path20" /><path
         d="m 787.711,1230.86 164.504,133.88"
         style="fill:none;stroke:#231f20;stroke-width:2.16;stroke-linecap:butt;stroke-linejoin:miter;stroke-miterlimit:2.6131;stroke-dasharray:none;stroke-opacity:1"
         id="path22" /><path
         d="m 774.578,1220.17 30.047,43.95 c 8.789,-5.85 15.148,-13.66 19.09,-23.46 l -49.137,-20.49"
         style="fill:#231f20;fill-opacity:1;fill-rule:evenodd;stroke:none"
         id="path24" /><path
         d="m 835.727,957 209.633,83.72"
         style="fill:none;stroke:#231f20;stroke-width:2.16;stroke-linecap:butt;stroke-linejoin:miter;stroke-miterlimit:2.6131;stroke-dasharray:none;stroke-opacity:1"
         id="path26" /><path
         d="m 820,950.719 41.797,32.972 c 6.641,-8.199 10.379,-17.562 11.215,-28.082 L 820,950.719"
         style="fill:#231f20;fill-opacity:1;fill-rule:evenodd;stroke:none"
         id="path28" /><g
         id="g30"
         transform="scale(10)"><text
           transform="matrix(1,0,0,-1,109,104.072)"
           style="font-variant:normal;font-weight:normal;font-size:9.9999px;font-family:Swis721LtCnBT;-inkscape-font-specification:Swis721LtCnBT;writing-mode:lr-tb;fill:#231f20;fill-opacity:1;fill-rule:nonzero;stroke:none"
           id="text38"><tspan
             x="0 5.8824234 10.70117 15.601564 20.501959 23.142973 27.673443"
             y="0"
             sodipodi:role="line"
             id="tspan32">Doppler</tspan><tspan
             x="0 4.900394 8.2042952 13.023433 17.333979 22.234373 26.764843 31.525385 36.056248"
             y="13.5828"
             sodipodi:role="line"
             id="tspan34">broadened</tspan><tspan
             x="-18 -15.359376 -12.797268 -8.0363293"
             y="-35.928101"
             sodipodi:role="line"
             id="tspan36">line</tspan></text><text
           transform="matrix(3.528e-5,1,1,-3.528e-5,7.91211,54.6801)"
           style="font-variant:normal;font-weight:normal;font-size:9.9999px;font-family:Swis721LtCnBT;-inkscape-font-specification:Swis721LtCnBT;writing-mode:lr-tb;fill:#231f20;fill-opacity:1;fill-rule:nonzero;stroke:none"
           id="text42"><tspan
             x="0 2.4207058 7.1812544 10.485552 15.016023 19.776571 24.067198 26.629696 29.933603"
             y="0"
             sodipodi:role="line"
             id="tspan40">Intensity</tspan></text><text
           transform="matrix(1,0,0,-1,68.5359,5.07188)"
           style="font-variant:normal;font-weight:normal;font-size:9.9999px;font-family:SymbolPropBT;-inkscape-font-specification:SymbolPropBT;writing-mode:lr-tb;fill:#231f20;fill-opacity:1;fill-rule:nonzero;stroke:none"
           id="text46"><tspan
             x="0"
             y="0"
             id="tspan44">n</tspan></text><text
           transform="matrix(1,0,0,-1,73.47106,3.47227)"
           style="font-variant:normal;font-weight:normal;font-size:7.99981px;font-family:Swis721LtCnBT;-inkscape-font-specification:Swis721LtCnBT;writing-mode:lr-tb;fill:#231f20;fill-opacity:1;fill-rule:nonzero;stroke:none"
           id="text50"><tspan
             x="0"
             y="0"
             id="tspan48">0</tspan></text><text
           transform="matrix(1,0,0,-1,140.53586,0.53594)"
           style="font-variant:normal;font-weight:normal;font-size:9.9999px;font-family:SymbolPropBT;-inkscape-font-specification:SymbolPropBT;writing-mode:lr-tb;fill:#231f20;fill-opacity:1;fill-rule:nonzero;stroke:none"
           id="text54"><tspan
             x="0"
             y="0"
             id="tspan52">n</tspan></text></g><path
         d="m 730,165.199 v -44.64"
         style="fill:none;stroke:#231f20;stroke-width:10.08;stroke-linecap:butt;stroke-linejoin:miter;stroke-miterlimit:2.6131;stroke-dasharray:none;stroke-opacity:1"
         id="path56" /><path
         d="M 730,1265.36 V 140.719"
         style="fill:none;stroke:#231f20;stroke-width:2.16;stroke-linecap:butt;stroke-linejoin:miter;stroke-miterlimit:2.6131;stroke-dasharray:none;stroke-opacity:1"
         id="path58" /></g></g></svg>
