<?xml version="1.0" encoding="UTF-8" standalone="no"?>
<!-- Created with Inkscape (http://www.inkscape.org/) -->

<svg
   version="1.1"
   id="svg2"
   xml:space="preserve"
   width="148"
   height="172"
   viewBox="0 0 148 172"
   sodipodi:docname="m132gr03.eps"
   xmlns:inkscape="http://www.inkscape.org/namespaces/inkscape"
   xmlns:sodipodi="http://sodipodi.sourceforge.net/DTD/sodipodi-0.dtd"
   xmlns="http://www.w3.org/2000/svg"
   xmlns:svg="http://www.w3.org/2000/svg"><defs
     id="defs6" /><sodipodi:namedview
     id="namedview4"
     pagecolor="#ffffff"
     bordercolor="#666666"
     borderopacity="1.0"
     inkscape:pageshadow="2"
     inkscape:pageopacity="0.0"
     inkscape:pagecheckerboard="0" /><g
     id="g8"
     inkscape:groupmode="layer"
     inkscape:label="ink_ext_XXXXXX"
     transform="matrix(1.3333333,0,0,-1.3333333,0,172)"><g
       id="g10"
       transform="scale(0.1)"><path
         d="M 560,1197.16 V 500"
         style="fill:none;stroke:#231f20;stroke-width:10.08;stroke-linecap:butt;stroke-linejoin:miter;stroke-miterlimit:2.6131;stroke-dasharray:none;stroke-opacity:1"
         id="path12" /><path
         d="m 560,1219.98 -20.16,-80.64 h 40.32 z"
         style="fill:#231f20;fill-opacity:1;fill-rule:evenodd;stroke:none"
         id="path14" /><path
         d="M 644.199,973.895 558.344,502.051"
         style="fill:none;stroke:#231f20;stroke-width:10.08;stroke-linecap:butt;stroke-linejoin:miter;stroke-miterlimit:2.6131;stroke-dasharray:none;stroke-opacity:1"
         id="path16" /><path
         d="m 648.281,996.344 -34.269,-75.727 39.672,-7.222 z"
         style="fill:#231f20;fill-opacity:1;fill-rule:evenodd;stroke:none"
         id="path18" /><path
         d="M 153.395,364.363 C 18.9297,228.57 243.113,363.586 108.41,229.527"
         style="fill:none;stroke:#231f20;stroke-width:2.16;stroke-linecap:butt;stroke-linejoin:miter;stroke-miterlimit:2.6131;stroke-dasharray:none;stroke-opacity:1"
         id="path20" /><path
         d="m 167.25,378.355 -21.133,-35.699 c -6.758,2.719 -11.558,7.469 -14.355,14.215 l 35.488,21.484"
         style="fill:#231f20;fill-opacity:1;fill-rule:evenodd;stroke:none"
         id="path22" /><g
         id="g24"
         transform="scale(10)"><text
           transform="matrix(1,0,0,-1,0.344922,14.0551)"
           style="font-variant:normal;font-weight:normal;font-size:9.9999px;font-family:Swis721LtCnBT;-inkscape-font-specification:Swis721LtCnBT;writing-mode:lr-tb;fill:#231f20;fill-opacity:1;fill-rule:nonzero;stroke:none"
           id="text30"><tspan
             x="0 2.5621095 7.3230467 11.911717 15.215624 19.746483 27.065231 31.595699 36.356636"
             y="0"
             sodipodi:role="line"
             id="tspan26">increment</tspan><tspan
             x="6.9706998 11.78945 16.014448 21.87343 24.562492 30.001554"
             y="13.5832"
             sodipodi:role="line"
             id="tspan28">ofG.S.</tspan></text></g><path
         d="m 290,725.91 c 239.762,0 585.359,-45.359 810,-180 L 785.359,230.551 c -225.359,90 -540,180 -765.359,180 z"
         style="fill:none;stroke:#231f20;stroke-width:5.04;stroke-linecap:butt;stroke-linejoin:miter;stroke-miterlimit:2.6131;stroke-dasharray:none;stroke-opacity:1"
         id="path32" /><g
         id="g34"
         transform="scale(10)"><text
           transform="matrix(1,0,0,-1,58.0703,99.591)"
           style="font-variant:normal;font-weight:normal;font-size:9.9999px;font-family:SymbolPropBT;-inkscape-font-specification:SymbolPropBT;writing-mode:lr-tb;fill:#231f20;fill-opacity:1;fill-rule:nonzero;stroke:none"
           id="text38"><tspan
             x="0"
             y="0"
             id="tspan36">q</tspan></text></g><path
         d="m 560.719,965.672 c 30.969,4.402 64.015,-4.055 81.238,-14.981"
         style="fill:none;stroke:#231f20;stroke-width:2.16;stroke-linecap:butt;stroke-linejoin:miter;stroke-miterlimit:2.6131;stroke-dasharray:none;stroke-opacity:1"
         id="path40" /><g
         id="g42"
         transform="scale(10)"><text
           transform="matrix(1,0,0,-1,70.075,86.0551)"
           style="font-variant:normal;font-weight:normal;font-size:9.9999px;font-family:Swis721LtCnBT;-inkscape-font-specification:Swis721LtCnBT;writing-mode:lr-tb;fill:#231f20;fill-opacity:1;fill-rule:nonzero;stroke:none"
           id="text52"><tspan
             x="0"
             y="0"
             id="tspan44">n</tspan><tspan
             x="-0.53906298"
             y="-2.3"
             id="tspan46">^</tspan><tspan
             x="-27.321463"
             y="-31.5359"
             id="tspan48">E</tspan><tspan
             x="-27.539042"
             y="-40.435509"
             id="tspan50">`</tspan></text></g></g></g></svg>
