<?xml version="1.0" encoding="UTF-8" standalone="no"?>
<!-- Created with Inkscape (http://www.inkscape.org/) -->

<svg
   version="1.1"
   id="svg2"
   xml:space="preserve"
   width="378.66666"
   height="146.66667"
   viewBox="0 0 378.66666 146.66667"
   sodipodi:docname="m205gr05.eps"
   xmlns:inkscape="http://www.inkscape.org/namespaces/inkscape"
   xmlns:sodipodi="http://sodipodi.sourceforge.net/DTD/sodipodi-0.dtd"
   xmlns="http://www.w3.org/2000/svg"
   xmlns:svg="http://www.w3.org/2000/svg"><defs
     id="defs6" /><sodipodi:namedview
     id="namedview4"
     pagecolor="#ffffff"
     bordercolor="#666666"
     borderopacity="1.0"
     inkscape:pageshadow="2"
     inkscape:pageopacity="0.0"
     inkscape:pagecheckerboard="0" /><g
     id="g8"
     inkscape:groupmode="layer"
     inkscape:label="ink_ext_XXXXXX"
     transform="matrix(1.3333333,0,0,-1.3333333,0,146.66667)"><g
       id="g10"
       transform="scale(0.1)"><path
         d="M 540,9.60938 V 864.965"
         style="fill:none;stroke:#231f20;stroke-width:5.04;stroke-linecap:butt;stroke-linejoin:miter;stroke-miterlimit:2.6131;stroke-dasharray:none;stroke-opacity:1"
         id="path12" /><path
         d="M 2835.36,684.641 1865.52,437.68 540,99.2813"
         style="fill:none;stroke:#231f20;stroke-width:5.04;stroke-linecap:butt;stroke-linejoin:miter;stroke-miterlimit:2.6131;stroke-dasharray:none;stroke-opacity:1"
         id="path14" /><path
         d="M 2295.36,1089.28 540,639.281"
         style="fill:none;stroke:#231f20;stroke-width:5.04;stroke-linecap:butt;stroke-linejoin:miter;stroke-miterlimit:2.6131;stroke-dasharray:none;stroke-opacity:1"
         id="path16" /><path
         d="M 668.879,135.281 544.324,635.672"
         style="fill:none;stroke:#231f20;stroke-width:5.04;stroke-linecap:butt;stroke-linejoin:miter;stroke-miterlimit:2.6131;stroke-dasharray:none;stroke-opacity:1"
         id="path18" /><g
         id="g20"
         transform="scale(10)"><text
           transform="matrix(0.25496377,-0.89403866,-0.96695061,-0.23792775,55.5461,11.1789)"
           style="font-variant:normal;font-weight:normal;font-size:15.8587px;font-family:TypoUprightBT;-inkscape-font-specification:TypoUprightBT;writing-mode:lr-tb;fill:#231f20;fill-opacity:1;fill-rule:nonzero;stroke:none"
           id="text24"><tspan
             x="0"
             y="0"
             id="tspan22">}</tspan></text><text
           transform="matrix(1,0,0,-1,62.6398,1.71992)"
           style="font-variant:normal;font-weight:normal;font-size:9.9999px;font-family:SymbolPropBT;-inkscape-font-specification:SymbolPropBT;writing-mode:lr-tb;fill:#231f20;fill-opacity:1;fill-rule:nonzero;stroke:none"
           id="text28"><tspan
             x="0"
             y="0"
             id="tspan26">D</tspan></text></g><path
         d="m 640.082,244 c -31.68,-7.922 -65.523,-12.238 -99.363,-12.238"
         style="fill:none;stroke:#231f20;stroke-width:5.04;stroke-linecap:butt;stroke-linejoin:miter;stroke-miterlimit:2.6131;stroke-dasharray:none;stroke-opacity:1"
         id="path30" /><path
         d="m 570.238,392.32 c 25.922,-277.199 218.164,10.078 192.961,84.239"
         style="fill:none;stroke:#231f20;stroke-width:2.16;stroke-linecap:butt;stroke-linejoin:miter;stroke-miterlimit:2.6131;stroke-dasharray:none;stroke-opacity:1"
         id="path32" /><path
         d="m 570.238,392.32 18.301,-48.687 c -8.738,-3.903 -17.898,-4.758 -27.254,-2.551 l 8.953,51.238"
         style="fill:#231f20;fill-opacity:1;fill-rule:evenodd;stroke:none"
         id="path34" /><g
         id="g36"
         transform="scale(10)"><text
           transform="matrix(1,0,0,-1,75.3121,51.3281)"
           style="font-variant:normal;font-weight:normal;font-size:9.9999px;font-family:SymbolPropBT;-inkscape-font-specification:SymbolPropBT;writing-mode:lr-tb;fill:#231f20;fill-opacity:1;fill-rule:nonzero;stroke:none"
           id="text40"><tspan
             x="0"
             y="0"
             id="tspan38">q</tspan></text><text
           transform="matrix(0.961739,0.273966,0.273966,-0.961739,80.7121,77.3199)"
           style="font-variant:normal;font-weight:normal;font-size:10.0001px;font-family:Swis721LtCnBT;-inkscape-font-specification:Swis721LtCnBT;writing-mode:lr-tb;fill:#231f20;fill-opacity:1;fill-rule:nonzero;stroke:none"
           id="text44"><tspan
             x="0 5.2923541 9.602953 12.906796 19.047506"
             y="0"
             sodipodi:role="line"
             id="tspan42">Path1</tspan></text><text
           transform="matrix(0.973179,0.230048,0.230048,-0.973179,97.3441,10.1441)"
           style="font-variant:normal;font-weight:normal;font-size:9.99999px;font-family:Swis721LtCnBT;-inkscape-font-specification:Swis721LtCnBT;writing-mode:lr-tb;fill:#231f20;fill-opacity:1;fill-rule:nonzero;stroke:none"
           id="text48"><tspan
             x="0 5.2918835 9.6028357 12.906709 19.047152"
             y="0"
             sodipodi:role="line"
             id="tspan46">Path2</tspan></text></g><path
         d="M 0,370 H 2610"
         style="fill:none;stroke:#231f20;stroke-width:2.16;stroke-linecap:butt;stroke-linejoin:miter;stroke-miterlimit:2.6131;stroke-dasharray:38.88, 30.24;stroke-dashoffset:0;stroke-opacity:1"
         id="path50" /><g
         id="g52"
         transform="scale(10)"><text
           transform="matrix(1,0,0,-1,210.312,40.384)"
           style="font-variant:normal;font-weight:normal;font-size:9.9999px;font-family:SymbolPropBT;-inkscape-font-specification:SymbolPropBT;writing-mode:lr-tb;fill:#231f20;fill-opacity:1;fill-rule:nonzero;stroke:none"
           id="text56"><tspan
             x="0"
             y="0"
             id="tspan54">q</tspan></text></g><path
         d="M 487.441,113.605 V 331.84 m 0,294.555 V 449.199"
         style="fill:none;stroke:#231f20;stroke-width:5.04;stroke-linecap:butt;stroke-linejoin:miter;stroke-miterlimit:2.6131;stroke-dasharray:none;stroke-opacity:1"
         id="path58" /><path
         d="m 457.223,101.504 h 60.422 v -2.629 h -60.422 v 2.629 m 1.324,64.363 c -1.609,3.219 1.668,3.149 3.375,0 7.121,-13.133 17.629,-36.777 25.512,-36.777 7.882,0 18.39,23.644 25.613,36.777 1.734,3.156 4.894,3.219 3.285,0 -10.508,-21.015 -18.273,-36.578 -28.898,-64.363 -10.508,27.586 -18.391,43.348 -28.887,64.363"
         style="fill:#231f20;fill-opacity:1;fill-rule:evenodd;stroke:none"
         id="path60" /><path
         d="m 517.656,638.496 h -60.422 v 2.629 h 60.422 v -2.629 m -1.324,-64.363 c 1.609,-3.219 -1.668,-3.149 -3.375,0 -7.121,13.133 -17.629,36.777 -25.512,36.777 -7.879,0 -18.386,-23.644 -25.613,-36.777 -1.734,-3.156 -4.894,-3.219 -3.285,0 10.512,21.015 18.273,36.578 28.898,64.363 10.508,-27.586 18.391,-43.348 28.887,-64.363"
         style="fill:#231f20;fill-opacity:1;fill-rule:evenodd;stroke:none"
         id="path62" /><path
         d="m 488.52,453.52 c 27.562,0 50.039,-27.493 50.039,-61.2 0,-33.707 -22.477,-61.199 -50.039,-61.199 -27.559,0 -50.04,27.492 -50.04,61.199 0,33.707 22.481,61.2 50.04,61.2"
         style="fill:#ffffff;fill-opacity:1;fill-rule:evenodd;stroke:none"
         id="path64" /><g
         id="g66"
         transform="scale(10)"><text
           transform="matrix(1,0,0,-1,46.4688,35.632)"
           style="font-variant:normal;font-weight:normal;font-size:9.9999px;font-family:Swis721LtCnBT;-inkscape-font-specification:Swis721LtCnBT;writing-mode:lr-tb;fill:#231f20;fill-opacity:1;fill-rule:nonzero;stroke:none"
           id="text70"><tspan
             x="0"
             y="0"
             id="tspan68">d</tspan></text></g><path
         d="m 2267.28,374.32 c 0,56.879 -8.64,112.321 -21.6,164.879"
         style="fill:none;stroke:#231f20;stroke-width:5.04;stroke-linecap:butt;stroke-linejoin:miter;stroke-miterlimit:2.6131;stroke-dasharray:none;stroke-opacity:1"
         id="path72" /><path
         d="m 1472.11,877.375 -30.91,-7.254"
         style="fill:none;stroke:#231f20;stroke-width:5.04;stroke-linecap:butt;stroke-linejoin:miter;stroke-miterlimit:2.6131;stroke-dasharray:none;stroke-opacity:1"
         id="path74" /><path
         d="m 1431.58,839.398 c -2.65,-2.207 -3.3,0.872 -0.74,3.153 10.71,9.527 30.49,24.519 28.76,31.883 -1.72,7.359 -26.11,11.992 -39.96,15.863 -3.32,0.93 -4.07,3.863 -0.72,3.066 21.93,-5.211 38.17,-9.054 66.44,-12.89 -23.46,-15.852 -36.45,-26.668 -53.78,-41.075"
         style="fill:#231f20;fill-opacity:1;fill-rule:evenodd;stroke:none"
         id="path76" /><path
         d="m 1833.58,430.141 -30.85,-7.52"
         style="fill:none;stroke:#231f20;stroke-width:5.04;stroke-linecap:butt;stroke-linejoin:miter;stroke-miterlimit:2.6131;stroke-dasharray:none;stroke-opacity:1"
         id="path78" /><path
         d="m 1793.38,391.816 c -2.63,-2.23 -3.31,0.84 -0.77,3.145 10.62,9.617 30.27,24.785 28.48,32.129 -1.79,7.344 -26.21,11.765 -40.09,15.515 -3.33,0.903 -4.11,3.833 -0.75,3.063 21.98,-5.02 38.24,-8.727 66.55,-12.313 -23.32,-16.058 -36.22,-26.984 -53.42,-41.539"
         style="fill:#231f20;fill-opacity:1;fill-rule:evenodd;stroke:none"
         id="path80" /></g></g></svg>
